<svg xmlns="http://www.w3.org/2000/svg" width="1600" height="700" viewBox="0 0 1600 700">
<defs><marker id="arr" viewBox="0 0 10 10" refX="8" refY="5" markerWidth="7" markerHeight="7" orient="auto-start-reverse">
<path d="M0 0L10 5L0 10z" fill="#2E56A6"/></marker></defs>
<rect x="620" y="10" width="360" height="60" rx="30" fill="#CFE0FF"/><g transform="translate(655.0,27.0) scale(1.0833333333333333)" fill="none" stroke="#2E56A6" stroke-width="2.00" stroke-linecap="round" stroke-linejoin="round"><circle cx="12" cy="8" r="4"/><path d="M4 21a8 8 0 0 1 16 0"/></g><text x="820" y="48" font-family="Roboto, Inter, Arial, sans-serif" font-size="22" font-weight="500" fill="#1F2937" text-anchor="middle">Question de l'utilisateur</text><path d="M800 70V104" stroke="#2E56A6" stroke-width="2.5" marker-end="url(#arr)"/><rect x="570" y="110" width="460" height="60" rx="16" fill="#E3EDFE" stroke="#2E56A6" stroke-width="1.5"/><text x="682" y="147" font-family="Roboto, Inter, Arial, sans-serif" font-size="21" font-weight="500" fill="#1F2937" text-anchor="middle">Interface web</text><path d="M772 140H818" stroke="#2E56A6" stroke-width="2.5" marker-end="url(#arr)"/><text x="922" y="147" font-family="Roboto, Inter, Arial, sans-serif" font-size="21" font-weight="500" fill="#1F2937" text-anchor="middle">API FastAPI</text><path d="M800 170V244" stroke="#2E56A6" stroke-width="2.5" marker-end="url(#arr)"/><rect x="620" y="250" width="360" height="120" rx="20" fill="#2E56A6"/><circle cx="800" cy="283" r="21" fill="#FFFFFF" fill-opacity="0.16"/><g transform="translate(788.0,271.0) scale(1.0)" fill="none" stroke="#FFFFFF" stroke-width="2.00" stroke-linecap="round" stroke-linejoin="round"><rect x="3" y="3" width="8" height="8" rx="2"/><rect x="13" y="13" width="8" height="8" rx="2"/><path d="M7 11v4a2 2 0 0 0 2 2h4"/></g><text x="800" y="332" font-family="Roboto, Inter, Arial, sans-serif" font-size="26" font-weight="700" fill="#FFFFFF" text-anchor="middle">Routeur agentique</text><text x="800" y="358" font-family="Roboto, Inter, Arial, sans-serif" font-size="17" font-weight="400" fill="#E3EDFE" text-anchor="middle">LangGraph · routage déterministe</text><path d="M620 282L410 210" stroke="#2E56A6" stroke-width="2" stroke-dasharray="7 6" fill="none"/><rect x="120" y="165.0" width="290" height="90" rx="18" fill="#FFFFFF" stroke="#2E56A6" stroke-width="2.5"/><circle cx="168" cy="210" r="26" fill="#E3EDFE"/><g transform="translate(155.0,197.0) scale(1.0833333333333333)" fill="none" stroke="#2E56A6" stroke-width="2.00" stroke-linecap="round" stroke-linejoin="round"><circle cx="11" cy="11" r="7"/><path d="M16.5 16.5 21 21"/></g><text x="210" y="207" font-family="Roboto, Inter, Arial, sans-serif" font-size="22" font-weight="700" fill="#1F2937" text-anchor="start">Recherche (RAG)</text><text x="210" y="232" font-family="Roboto, Inter, Arial, sans-serif" font-size="16" font-weight="400" fill="#4B5563" text-anchor="start">réponse sourcée [S1]</text><path d="M620 310L410 310" stroke="#2E56A6" stroke-width="2" stroke-dasharray="7 6" fill="none"/><rect x="120" y="265.0" width="290" height="90" rx="18" fill="#FFFFFF" stroke="#2E56A6" stroke-width="2.5"/><circle cx="168" cy="310" r="26" fill="#E3EDFE"/><g transform="translate(155.0,297.0) scale(1.0833333333333333)" fill="none" stroke="#2E56A6" stroke-width="2.00" stroke-linecap="round" stroke-linejoin="round"><path d="M4 14h6v6M20 10h-6V4M14 10l7-7M3 21l7-7"/></g><text x="210" y="307" font-family="Roboto, Inter, Arial, sans-serif" font-size="22" font-weight="700" fill="#1F2937" text-anchor="start">Résumé</text><text x="210" y="332" font-family="Roboto, Inter, Arial, sans-serif" font-size="16" font-weight="400" fill="#4B5563" text-anchor="start">document entier</text><path d="M620 338L410 410" stroke="#2E56A6" stroke-width="2" stroke-dasharray="7 6" fill="none"/><rect x="120" y="365.0" width="290" height="90" rx="18" fill="#FFFFFF" stroke="#2E56A6" stroke-width="2.5"/><circle cx="168" cy="410" r="26" fill="#E3EDFE"/><g transform="translate(155.0,397.0) scale(1.0833333333333333)" fill="none" stroke="#2E56A6" stroke-width="2.00" stroke-linecap="round" stroke-linejoin="round"><path d="M12 2 2 7l10 5 10-5-10-5zM2 17l10 5 10-5M2 12l10 5 10-5"/></g><text x="210" y="407" font-family="Roboto, Inter, Arial, sans-serif" font-size="22" font-weight="700" fill="#1F2937" text-anchor="start">Classification</text><text x="210" y="432" font-family="Roboto, Inter, Arial, sans-serif" font-size="16" font-weight="400" fill="#4B5563" text-anchor="start">catégorie du document</text><path d="M980 282L1190 210" stroke="#2E56A6" stroke-width="2" stroke-dasharray="7 6" fill="none"/><rect x="1190" y="165.0" width="290" height="90" rx="18" fill="#FFFFFF" stroke="#2E56A6" stroke-width="2.5"/><circle cx="1238" cy="210" r="26" fill="#E3EDFE"/><g transform="translate(1225.0,197.0) scale(1.0833333333333333)" fill="none" stroke="#2E56A6" stroke-width="2.00" stroke-linecap="round" stroke-linejoin="round"><path d="M14 2H6a2 2 0 0 0-2 2v16a2 2 0 0 0 2 2h12a2 2 0 0 0 2-2V8zM14 2v6h6M16 13H8M16 17H8M10 9H8"/></g><text x="1280" y="207" font-family="Roboto, Inter, Arial, sans-serif" font-size="22" font-weight="700" fill="#1F2937" text-anchor="start">Extraction</text><text x="1280" y="232" font-family="Roboto, Inter, Arial, sans-serif" font-size="16" font-weight="400" fill="#4B5563" text-anchor="start">champs structurés</text><path d="M980 310L1190 310" stroke="#2E56A6" stroke-width="2" stroke-dasharray="7 6" fill="none"/><rect x="1190" y="265.0" width="290" height="90" rx="18" fill="#FFFFFF" stroke="#2E56A6" stroke-width="2.5"/><circle cx="1238" cy="310" r="26" fill="#E3EDFE"/><g transform="translate(1225.0,297.0) scale(1.0833333333333333)" fill="none" stroke="#2E56A6" stroke-width="2.00" stroke-linecap="round" stroke-linejoin="round"><path d="M8 3 4 7l4 4M4 7h16M16 21l4-4-4-4M20 17H4"/></g><text x="1280" y="307" font-family="Roboto, Inter, Arial, sans-serif" font-size="22" font-weight="700" fill="#1F2937" text-anchor="start">Comparaison</text><text x="1280" y="332" font-family="Roboto, Inter, Arial, sans-serif" font-size="16" font-weight="400" fill="#4B5563" text-anchor="start">2 à 4 documents</text><path d="M980 338L1190 410" stroke="#2E56A6" stroke-width="2" stroke-dasharray="7 6" fill="none"/><rect x="1190" y="365.0" width="290" height="90" rx="18" fill="#FFFFFF" stroke="#2E56A6" stroke-width="2.5"/><circle cx="1238" cy="410" r="26" fill="#E3EDFE"/><g transform="translate(1225.0,397.0) scale(1.0833333333333333)" fill="none" stroke="#2E56A6" stroke-width="2.00" stroke-linecap="round" stroke-linejoin="round"><circle cx="18" cy="18" r="3"/><circle cx="6" cy="6" r="3"/><path d="M6 21V9a9 9 0 0 0 9 9"/></g><text x="1280" y="407" font-family="Roboto, Inter, Arial, sans-serif" font-size="22" font-weight="700" fill="#1F2937" text-anchor="start">Synthèse</text><text x="1280" y="432" font-family="Roboto, Inter, Arial, sans-serif" font-size="16" font-weight="400" fill="#4B5563" text-anchor="start">2 à 4 documents</text><path d="M800 370V490M410 490H1190" stroke="#2E56A6" stroke-width="2" fill="none"/><path d="M410.0 490V524" stroke="#2E56A6" stroke-width="2" marker-end="url(#arr)"/><rect x="240" y="530" width="340" height="80" rx="16" fill="#E3EDFE"/><circle cx="286" cy="570.0" r="25" fill="#2E56A6"/><g transform="translate(274.0,558.0) scale(1.0)" fill="none" stroke="#FFFFFF" stroke-width="2.00" stroke-linecap="round" stroke-linejoin="round"><ellipse cx="12" cy="5" rx="9" ry="3"/><path d="M3 5v14a9 3 0 0 0 18 0V5M3 12a9 3 0 0 0 18 0"/></g><text x="326" y="566" font-family="Roboto, Inter, Arial, sans-serif" font-size="21" font-weight="700" fill="#1F2937" text-anchor="start">Base vectorielle</text><text x="326" y="590" font-family="Roboto, Inter, Arial, sans-serif" font-size="16" font-weight="400" fill="#4B5563" text-anchor="start">Qdrant · documents indexés</text><path d="M800.0 490V524" stroke="#2E56A6" stroke-width="2" marker-end="url(#arr)"/><rect x="630" y="530" width="340" height="80" rx="16" fill="#E3EDFE"/><circle cx="676" cy="570.0" r="25" fill="#2E56A6"/><g transform="translate(664.0,558.0) scale(1.0)" fill="none" stroke="#FFFFFF" stroke-width="2.00" stroke-linecap="round" stroke-linejoin="round"><rect x="4" y="4" width="16" height="16" rx="2"/><rect x="9" y="9" width="6" height="6"/><path d="M9 1v3M15 1v3M9 20v3M15 20v3M20 9h3M20 14h3M1 9h3M1 14h3"/></g><text x="716" y="566" font-family="Roboto, Inter, Arial, sans-serif" font-size="21" font-weight="700" fill="#1F2937" text-anchor="start">LLM local</text><text x="716" y="590" font-family="Roboto, Inter, Arial, sans-serif" font-size="16" font-weight="400" fill="#4B5563" text-anchor="start">Qwen3 8B via Ollama</text><path d="M1190.0 490V524" stroke="#2E56A6" stroke-width="2" marker-end="url(#arr)"/><rect x="1020" y="530" width="340" height="80" rx="16" fill="#E3EDFE"/><circle cx="1066" cy="570.0" r="25" fill="#2E56A6"/><g transform="translate(1054.0,558.0) scale(1.0)" fill="none" stroke="#FFFFFF" stroke-width="2.00" stroke-linecap="round" stroke-linejoin="round"><rect x="2" y="7" width="20" height="14" rx="2"/><path d="M16 21V5a2 2 0 0 0-2-2h-4a2 2 0 0 0-2 2v16"/></g><text x="1106" y="566" font-family="Roboto, Inter, Arial, sans-serif" font-size="21" font-weight="700" fill="#1F2937" text-anchor="start">Profil de domaine</text><text x="1106" y="590" font-family="Roboto, Inter, Arial, sans-serif" font-size="16" font-weight="400" fill="#4B5563" text-anchor="start">contexte métier</text><text x="800" y="670" font-family="Roboto, Inter, Arial, sans-serif" font-size="19" font-weight="500" fill="#2E56A6" text-anchor="middle">100 % local : aucune donnée ne quitte l'infrastructure de l'entreprise</text>
</svg>