<svg xmlns="http://www.w3.org/2000/svg" width="1600" height="625" viewBox="0 0 1600 625">
<path d="M190.0 92H1105.0" stroke="#2E56A6" stroke-width="4"/><path d="M1105.0 92H1410.0" stroke="#9CA3AF" stroke-width="4" stroke-dasharray="10 8"/><path d="M1257.5 44V545" stroke="#F07F1A" stroke-width="2.5" stroke-dasharray="6 6"/><rect x="1132.5" y="6" width="250" height="36" rx="18" fill="#F07F1A"/><text x="1257.5" y="30" font-family="Roboto, Inter, Arial, sans-serif" font-size="17" font-weight="700" fill="#FFFFFF" text-anchor="middle" >Livraison · septembre 2026</text><circle cx="190.0" cy="92" r="26" fill="#2E56A6"/><g transform="translate(177.0,79.0) scale(1.0833333333333333)" fill="none" stroke="#FFFFFF" stroke-width="2.7692307692307696" stroke-linecap="round" stroke-linejoin="round"><path d="M4 12.5l5 5L20 6.5"/></g><path d="M190.0 122V146" stroke="#2E56A6" stroke-width="2"/><rect x="50" y="150" width="280" height="385" rx="18" fill="#FFFFFF" stroke="#2E56A6" stroke-width="2.5"/><text x="72" y="184" font-family="Roboto, Inter, Arial, sans-serif" font-size="14" font-weight="700" fill="#2E56A6" text-anchor="start" letter-spacing="1.5">PHASE 1</text><text x="72" y="214" font-family="Roboto, Inter, Arial, sans-serif" font-size="21" font-weight="700" fill="#1F2937" text-anchor="start" >Socle documentaire</text><rect x="72" y="228" width="81.6" height="26" rx="13" fill="#2E56A6"/><text x="112.8" y="246" font-family="Roboto, Inter, Arial, sans-serif" font-size="14" font-weight="700" fill="#FFFFFF" text-anchor="middle" >Terminée</text><path d="M72 272H308" stroke="#E3EDFE" stroke-width="2"/><circle cx="84" cy="301" r="11" fill="#E3EDFE"/><g transform="translate(77.0,294.0) scale(0.5833333333333334)" fill="none" stroke="#2E56A6" stroke-width="4.8" stroke-linecap="round" stroke-linejoin="round"><path d="M4 12.5l5 5L20 6.5"/></g><text x="104" y="306" font-family="Roboto, Inter, Arial, sans-serif" font-size="16" font-weight="400" fill="#1F2937" text-anchor="start" >Ingestion multi-formats</text><circle cx="84" cy="341" r="11" fill="#E3EDFE"/><g transform="translate(77.0,334.0) scale(0.5833333333333334)" fill="none" stroke="#2E56A6" stroke-width="4.8" stroke-linecap="round" stroke-linejoin="round"><path d="M4 12.5l5 5L20 6.5"/></g><text x="104" y="346" font-family="Roboto, Inter, Arial, sans-serif" font-size="16" font-weight="400" fill="#1F2937" text-anchor="start" >OCR français, arabe, anglais</text><circle cx="84" cy="381" r="11" fill="#E3EDFE"/><g transform="translate(77.0,374.0) scale(0.5833333333333334)" fill="none" stroke="#2E56A6" stroke-width="4.8" stroke-linecap="round" stroke-linejoin="round"><path d="M4 12.5l5 5L20 6.5"/></g><text x="104" y="386" font-family="Roboto, Inter, Arial, sans-serif" font-size="16" font-weight="400" fill="#1F2937" text-anchor="start" >Découpage structuré</text><circle cx="84" cy="421" r="11" fill="#E3EDFE"/><g transform="translate(77.0,414.0) scale(0.5833333333333334)" fill="none" stroke="#2E56A6" stroke-width="4.8" stroke-linecap="round" stroke-linejoin="round"><path d="M4 12.5l5 5L20 6.5"/></g><text x="104" y="426" font-family="Roboto, Inter, Arial, sans-serif" font-size="16" font-weight="400" fill="#1F2937" text-anchor="start" >Embeddings BGE-M3</text><circle cx="84" cy="461" r="11" fill="#E3EDFE"/><g transform="translate(77.0,454.0) scale(0.5833333333333334)" fill="none" stroke="#2E56A6" stroke-width="4.8" stroke-linecap="round" stroke-linejoin="round"><path d="M4 12.5l5 5L20 6.5"/></g><text x="104" y="466" font-family="Roboto, Inter, Arial, sans-serif" font-size="16" font-weight="400" fill="#1F2937" text-anchor="start" >Base vectorielle Qdrant</text><circle cx="495.0" cy="92" r="26" fill="#2E56A6"/><g transform="translate(482.0,79.0) scale(1.0833333333333333)" fill="none" stroke="#FFFFFF" stroke-width="2.7692307692307696" stroke-linecap="round" stroke-linejoin="round"><path d="M4 12.5l5 5L20 6.5"/></g><path d="M495.0 122V146" stroke="#2E56A6" stroke-width="2"/><rect x="355" y="150" width="280" height="385" rx="18" fill="#FFFFFF" stroke="#2E56A6" stroke-width="2.5"/><text x="377" y="184" font-family="Roboto, Inter, Arial, sans-serif" font-size="14" font-weight="700" fill="#2E56A6" text-anchor="start" letter-spacing="1.5">PHASE 2</text><text x="377" y="214" font-family="Roboto, Inter, Arial, sans-serif" font-size="21" font-weight="700" fill="#1F2937" text-anchor="start" >Moteur RAG fiable</text><rect x="377" y="228" width="81.6" height="26" rx="13" fill="#2E56A6"/><text x="417.8" y="246" font-family="Roboto, Inter, Arial, sans-serif" font-size="14" font-weight="700" fill="#FFFFFF" text-anchor="middle" >Terminée</text><path d="M377 272H613" stroke="#E3EDFE" stroke-width="2"/><circle cx="389" cy="301" r="11" fill="#E3EDFE"/><g transform="translate(382.0,294.0) scale(0.5833333333333334)" fill="none" stroke="#2E56A6" stroke-width="4.8" stroke-linecap="round" stroke-linejoin="round"><path d="M4 12.5l5 5L20 6.5"/></g><text x="409" y="306" font-family="Roboto, Inter, Arial, sans-serif" font-size="16" font-weight="400" fill="#1F2937" text-anchor="start" >Recherche hybride</text><circle cx="389" cy="341" r="11" fill="#E3EDFE"/><g transform="translate(382.0,334.0) scale(0.5833333333333334)" fill="none" stroke="#2E56A6" stroke-width="4.8" stroke-linecap="round" stroke-linejoin="round"><path d="M4 12.5l5 5L20 6.5"/></g><text x="409" y="346" font-family="Roboto, Inter, Arial, sans-serif" font-size="16" font-weight="400" fill="#1F2937" text-anchor="start" >Reranking</text><circle cx="389" cy="381" r="11" fill="#E3EDFE"/><g transform="translate(382.0,374.0) scale(0.5833333333333334)" fill="none" stroke="#2E56A6" stroke-width="4.8" stroke-linecap="round" stroke-linejoin="round"><path d="M4 12.5l5 5L20 6.5"/></g><text x="409" y="386" font-family="Roboto, Inter, Arial, sans-serif" font-size="16" font-weight="400" fill="#1F2937" text-anchor="start" >Génération Qwen3 8B</text><circle cx="389" cy="421" r="11" fill="#E3EDFE"/><g transform="translate(382.0,414.0) scale(0.5833333333333334)" fill="none" stroke="#2E56A6" stroke-width="4.8" stroke-linecap="round" stroke-linejoin="round"><path d="M4 12.5l5 5L20 6.5"/></g><text x="409" y="426" font-family="Roboto, Inter, Arial, sans-serif" font-size="16" font-weight="400" fill="#1F2937" text-anchor="start" >Citations vérifiées</text><circle cx="389" cy="461" r="11" fill="#E3EDFE"/><g transform="translate(382.0,454.0) scale(0.5833333333333334)" fill="none" stroke="#2E56A6" stroke-width="4.8" stroke-linecap="round" stroke-linejoin="round"><path d="M4 12.5l5 5L20 6.5"/></g><text x="409" y="466" font-family="Roboto, Inter, Arial, sans-serif" font-size="16" font-weight="400" fill="#1F2937" text-anchor="start" >Profil de domaine</text><circle cx="389" cy="501" r="11" fill="#E3EDFE"/><g transform="translate(382.0,494.0) scale(0.5833333333333334)" fill="none" stroke="#2E56A6" stroke-width="4.8" stroke-linecap="round" stroke-linejoin="round"><path d="M4 12.5l5 5L20 6.5"/></g><text x="409" y="506" font-family="Roboto, Inter, Arial, sans-serif" font-size="16" font-weight="400" fill="#1F2937" text-anchor="start" >Évaluation, socle gelé</text><circle cx="800.0" cy="92" r="26" fill="#2E56A6"/><g transform="translate(787.0,79.0) scale(1.0833333333333333)" fill="none" stroke="#FFFFFF" stroke-width="2.7692307692307696" stroke-linecap="round" stroke-linejoin="round"><path d="M4 12.5l5 5L20 6.5"/></g><path d="M800.0 122V146" stroke="#2E56A6" stroke-width="2"/><rect x="660" y="150" width="280" height="385" rx="18" fill="#FFFFFF" stroke="#2E56A6" stroke-width="2.5"/><text x="682" y="184" font-family="Roboto, Inter, Arial, sans-serif" font-size="14" font-weight="700" fill="#2E56A6" text-anchor="start" letter-spacing="1.5">PHASE 3</text><text x="682" y="214" font-family="Roboto, Inter, Arial, sans-serif" font-size="21" font-weight="700" fill="#1F2937" text-anchor="start" >Agent documentaire</text><rect x="682" y="228" width="81.6" height="26" rx="13" fill="#2E56A6"/><text x="722.8" y="246" font-family="Roboto, Inter, Arial, sans-serif" font-size="14" font-weight="700" fill="#FFFFFF" text-anchor="middle" >Terminée</text><path d="M682 272H918" stroke="#E3EDFE" stroke-width="2"/><circle cx="694" cy="301" r="11" fill="#E3EDFE"/><g transform="translate(687.0,294.0) scale(0.5833333333333334)" fill="none" stroke="#2E56A6" stroke-width="4.8" stroke-linecap="round" stroke-linejoin="round"><path d="M4 12.5l5 5L20 6.5"/></g><text x="714" y="306" font-family="Roboto, Inter, Arial, sans-serif" font-size="16" font-weight="400" fill="#1F2937" text-anchor="start" >Routage agentique</text><circle cx="694" cy="341" r="11" fill="#E3EDFE"/><g transform="translate(687.0,334.0) scale(0.5833333333333334)" fill="none" stroke="#2E56A6" stroke-width="4.8" stroke-linecap="round" stroke-linejoin="round"><path d="M4 12.5l5 5L20 6.5"/></g><text x="714" y="346" font-family="Roboto, Inter, Arial, sans-serif" font-size="16" font-weight="400" fill="#1F2937" text-anchor="start" >6 capacités documentaires</text><circle cx="694" cy="381" r="11" fill="#E3EDFE"/><g transform="translate(687.0,374.0) scale(0.5833333333333334)" fill="none" stroke="#2E56A6" stroke-width="4.8" stroke-linecap="round" stroke-linejoin="round"><path d="M4 12.5l5 5L20 6.5"/></g><text x="714" y="386" font-family="Roboto, Inter, Arial, sans-serif" font-size="16" font-weight="400" fill="#1F2937" text-anchor="start" >Comparaison et synthèse</text><circle cx="694" cy="421" r="11" fill="#E3EDFE"/><g transform="translate(687.0,414.0) scale(0.5833333333333334)" fill="none" stroke="#2E56A6" stroke-width="4.8" stroke-linecap="round" stroke-linejoin="round"><path d="M4 12.5l5 5L20 6.5"/></g><text x="714" y="426" font-family="Roboto, Inter, Arial, sans-serif" font-size="16" font-weight="400" fill="#1F2937" text-anchor="start" >Refus si preuves absentes</text><circle cx="694" cy="461" r="11" fill="#E3EDFE"/><g transform="translate(687.0,454.0) scale(0.5833333333333334)" fill="none" stroke="#2E56A6" stroke-width="4.8" stroke-linecap="round" stroke-linejoin="round"><path d="M4 12.5l5 5L20 6.5"/></g><text x="714" y="466" font-family="Roboto, Inter, Arial, sans-serif" font-size="16" font-weight="400" fill="#1F2937" text-anchor="start" >Benchmarks de qualité</text><circle cx="694" cy="501" r="11" fill="#E3EDFE"/><g transform="translate(687.0,494.0) scale(0.5833333333333334)" fill="none" stroke="#2E56A6" stroke-width="4.8" stroke-linecap="round" stroke-linejoin="round"><path d="M4 12.5l5 5L20 6.5"/></g><text x="714" y="506" font-family="Roboto, Inter, Arial, sans-serif" font-size="16" font-weight="400" fill="#1F2937" text-anchor="start" >1061 tests automatisés</text><circle cx="1105.0" cy="92" r="26" fill="#FFFFFF" stroke="#F07F1A" stroke-width="4"/><path d="M1105.0 75A17 17 0 1 1 1088.0 92L1105.0 92Z" fill="#F07F1A"/><path d="M1105.0 122V146" stroke="#2E56A6" stroke-width="2"/><rect x="965" y="150" width="280" height="385" rx="18" fill="#FFFFFF" stroke="#F07F1A" stroke-width="2.5"/><text x="987" y="184" font-family="Roboto, Inter, Arial, sans-serif" font-size="14" font-weight="700" fill="#2E56A6" text-anchor="start" letter-spacing="1.5">PHASE 4</text><text x="987" y="214" font-family="Roboto, Inter, Arial, sans-serif" font-size="21" font-weight="700" fill="#1F2937" text-anchor="start" >Intégration entreprise</text><rect x="987" y="228" width="147.2" height="26" rx="13" fill="#F07F1A"/><text x="1060.6" y="246" font-family="Roboto, Inter, Arial, sans-serif" font-size="14" font-weight="700" fill="#FFFFFF" text-anchor="middle" >Largement livrée</text><path d="M987 272H1223" stroke="#E3EDFE" stroke-width="2"/><circle cx="999" cy="301" r="11" fill="#E3EDFE"/><g transform="translate(992.0,294.0) scale(0.5833333333333334)" fill="none" stroke="#2E56A6" stroke-width="4.8" stroke-linecap="round" stroke-linejoin="round"><path d="M4 12.5l5 5L20 6.5"/></g><text x="1019" y="306" font-family="Roboto, Inter, Arial, sans-serif" font-size="16" font-weight="400" fill="#1F2937" text-anchor="start" >API REST FastAPI</text><circle cx="999" cy="341" r="11" fill="#E3EDFE"/><g transform="translate(992.0,334.0) scale(0.5833333333333334)" fill="none" stroke="#2E56A6" stroke-width="4.8" stroke-linecap="round" stroke-linejoin="round"><path d="M4 12.5l5 5L20 6.5"/></g><text x="1019" y="346" font-family="Roboto, Inter, Arial, sans-serif" font-size="16" font-weight="400" fill="#1F2937" text-anchor="start" >Interface web</text><circle cx="999" cy="381" r="11" fill="#E3EDFE"/><g transform="translate(992.0,374.0) scale(0.5833333333333334)" fill="none" stroke="#2E56A6" stroke-width="4.8" stroke-linecap="round" stroke-linejoin="round"><path d="M4 12.5l5 5L20 6.5"/></g><text x="1019" y="386" font-family="Roboto, Inter, Arial, sans-serif" font-size="16" font-weight="400" fill="#1F2937" text-anchor="start" >Multi-corpus isolés</text><circle cx="999" cy="421" r="11" fill="#E3EDFE"/><g transform="translate(992.0,414.0) scale(0.5833333333333334)" fill="none" stroke="#2E56A6" stroke-width="4.8" stroke-linecap="round" stroke-linejoin="round"><path d="M4 12.5l5 5L20 6.5"/></g><text x="1019" y="426" font-family="Roboto, Inter, Arial, sans-serif" font-size="16" font-weight="400" fill="#1F2937" text-anchor="start" >Observabilité (traces)</text><circle cx="999" cy="461" r="8" fill="none" stroke="#F07F1A" stroke-width="2.2"/><path d="M999 453A8 8 0 0 1 999 469Z" fill="#F07F1A"/><text x="1019" y="466" font-family="Roboto, Inter, Arial, sans-serif" font-size="16" font-weight="400" fill="#1F2937" text-anchor="start" >Connecteurs : socle prêt</text><circle cx="999" cy="501" r="8" fill="none" stroke="#F07F1A" stroke-width="2.2"/><path d="M999 493A8 8 0 0 1 999 509Z" fill="#F07F1A"/><text x="1019" y="506" font-family="Roboto, Inter, Arial, sans-serif" font-size="16" font-weight="400" fill="#1F2937" text-anchor="start" >Déploiement : 1 commande</text><circle cx="1410.0" cy="92" r="26" fill="#FFFFFF" stroke="#9CA3AF" stroke-width="3" stroke-dasharray="6 4"/><text x="1410.0" y="99" font-family="Roboto, Inter, Arial, sans-serif" font-size="20" font-weight="700" fill="#9CA3AF" text-anchor="middle" >5</text><path d="M1410.0 122V146" stroke="#9CA3AF" stroke-width="2"/><rect x="1270" y="150" width="280" height="385" rx="18" fill="#F5F7FA" stroke="#9CA3AF" stroke-width="2.5" stroke-dasharray="8 6"/><text x="1292" y="184" font-family="Roboto, Inter, Arial, sans-serif" font-size="14" font-weight="700" fill="#9CA3AF" text-anchor="start" letter-spacing="1.5">PHASE 5</text><text x="1292" y="214" font-family="Roboto, Inter, Arial, sans-serif" font-size="21" font-weight="700" fill="#4B5563" text-anchor="start" >Industrialisation</text><rect x="1292" y="228" width="139.0" height="26" rx="13" fill="#E5E7EB"/><text x="1361.5" y="246" font-family="Roboto, Inter, Arial, sans-serif" font-size="14" font-weight="700" fill="#4B5563" text-anchor="middle" >Prochaine étape</text><path d="M1292 272H1528" stroke="#E5E7EB" stroke-width="2"/><circle cx="1304" cy="301" r="7" fill="none" stroke="#9CA3AF" stroke-width="2.2"/><text x="1324" y="306" font-family="Roboto, Inter, Arial, sans-serif" font-size="16" font-weight="400" fill="#4B5563" text-anchor="start" >SSO et droits par corpus</text><circle cx="1304" cy="341" r="7" fill="none" stroke="#9CA3AF" stroke-width="2.2"/><text x="1324" y="346" font-family="Roboto, Inter, Arial, sans-serif" font-size="16" font-weight="400" fill="#4B5563" text-anchor="start" >Qdrant en mode serveur</text><circle cx="1304" cy="381" r="7" fill="none" stroke="#9CA3AF" stroke-width="2.2"/><text x="1324" y="386" font-family="Roboto, Inter, Arial, sans-serif" font-size="16" font-weight="400" fill="#4B5563" text-anchor="start" >Traitements asynchrones</text><circle cx="1304" cy="421" r="7" fill="none" stroke="#9CA3AF" stroke-width="2.2"/><text x="1324" y="426" font-family="Roboto, Inter, Arial, sans-serif" font-size="16" font-weight="400" fill="#4B5563" text-anchor="start" >CI/CD et conteneurs</text><circle cx="1304" cy="461" r="7" fill="none" stroke="#9CA3AF" stroke-width="2.2"/><text x="1324" y="466" font-family="Roboto, Inter, Arial, sans-serif" font-size="16" font-weight="400" fill="#4B5563" text-anchor="start" >Supervision centralisée</text><circle cx="1304" cy="501" r="7" fill="none" stroke="#9CA3AF" stroke-width="2.2"/><text x="1324" y="506" font-family="Roboto, Inter, Arial, sans-serif" font-size="16" font-weight="400" fill="#4B5563" text-anchor="start" >Connecteurs d'entreprise</text><circle cx="560" cy="589" r="11" fill="#E3EDFE"/><g transform="translate(553.0,582.0) scale(0.5833333333333334)" fill="none" stroke="#2E56A6" stroke-width="4.8" stroke-linecap="round" stroke-linejoin="round"><path d="M4 12.5l5 5L20 6.5"/></g><text x="580" y="594" font-family="Roboto, Inter, Arial, sans-serif" font-size="16" font-weight="500" fill="#4B5563" text-anchor="start" >Livré</text><circle cx="700" cy="589" r="8" fill="none" stroke="#F07F1A" stroke-width="2.2"/><path d="M700 581A8 8 0 0 1 700 597Z" fill="#F07F1A"/><text x="720" y="594" font-family="Roboto, Inter, Arial, sans-serif" font-size="16" font-weight="500" fill="#4B5563" text-anchor="start" >Partiel : base en place, à compléter</text><circle cx="1030" cy="589" r="7" fill="none" stroke="#9CA3AF" stroke-width="2.2"/><text x="1050" y="594" font-family="Roboto, Inter, Arial, sans-serif" font-size="16" font-weight="500" fill="#4B5563" text-anchor="start" >À venir</text>
</svg>